<svg id="eYFANSq8ots1" xmlns="http://www.w3.org/2000/svg" xmlns:xlink="http://www.w3.org/1999/xlink" viewBox="0 0 98.4 118.3" shape-rendering="geometricPrecision" text-rendering="geometricPrecision"><defs><linearGradient id="eYFANSq8ots10-stroke" x1="0" y1="0.5" x2="1" y2="0.5" spreadMethod="pad" gradientUnits="objectBoundingBox"><stop id="eYFANSq8ots10-stroke-0" offset="0%" stop-color="rgb(255,62,0)"/><stop id="eYFANSq8ots10-stroke-1" offset="100%" stop-color="rgb(255,169,142)"/></linearGradient></defs><rect id="eYFANSq8ots2" width="13.513888" height="3.545428" rx="0.8" ry="0.8" transform="matrix(1.61577 0 0 0.621126 10.432499 70.370699)" fill="rgb(255,62,0)" stroke="none" stroke-width="0" stroke-miterlimit="1"/><rect id="eYFANSq8ots3" width="13.513888" height="3.545428" rx="0.94" ry="0.94" transform="matrix(1.183198 0 0 0.621126 10.432499 76.279065)" fill="rgb(255,62,0)" stroke="none" stroke-width="0" stroke-miterlimit="1"/><rect id="eYFANSq8ots4" width="13.513888" height="3.545428" rx="0.73" ry="0.73" transform="matrix(2.013758 0 0 0.621126 10.432499 81.919797)" fill="rgb(255,62,0)" stroke="none" stroke-width="0" stroke-miterlimit="1"/><rect id="eYFANSq8ots5" width="13.513888" height="3.545428" rx="0.94" ry="0.94" transform="matrix(1.183198 0 0 0.621126 10.432499 64.453238)" fill="rgb(255,62,0)" stroke="none" stroke-width="0" stroke-miterlimit="1"/><rect id="eYFANSq8ots6" width="13.513888" height="3.545428" rx="0.94" ry="0.94" transform="matrix(1.183198 0 0 0.621126 10.432499 64.453238)" fill="rgb(255,62,0)" stroke="none" stroke-width="0" stroke-miterlimit="1"/><rect id="eYFANSq8ots7" width="13.513888" height="3.545428" rx="0.94" ry="0.94" transform="matrix(1.183198 0 0 0.621126 10.432499 59.150001)" fill="rgb(255,62,0)" stroke="none" stroke-width="0" stroke-miterlimit="1"/><g id="eYFANSq8ots8" transform="matrix(1 0 0 1 0 0.000001)"><g id="eYFANSq8ots9" transform="matrix(0.920982 0 0 0.857047 -12.4992 -5.18225)"><path id="eYFANSq8ots10" d="M41.1,104C32.2,106.3,22.9,102.8,17.7,95.3C14.5,90.9,13.3,85.4,14.2,80C14.4,79.1,14.6,78.3,14.8,77.4L15.3,75.8L16.7,76.8C20,79.2,23.6,81,27.5,82.2L28.5,82.5L28.4,83.5C28.3,84.9,28.7,86.4,29.5,87.6C31.1,89.9,33.9,91,36.6,90.3C37.2,90.1,37.8,89.9,38.3,89.6L65.7,72.1C67.1,71.2,68,69.9,68.3,68.3C68.6,66.7,68.2,65,67.3,63.7C65.7,61.4,62.9,60.4,60.2,61.1C59.6,61.3,59,61.5,58.5,61.8L48,68.5C46.3,69.6,44.4,70.4,42.4,70.9C33.5,73.2,24.2,69.7,19,62.2C15.9,57.8,14.6,52.3,15.6,46.9C16.5,41.7,19.7,37,24.2,34.2L51.6,16.7C53.3,15.6,55.2,14.8,57.2,14.2C66.1,11.9,75.4,15.4,80.6,22.9C83.8,27.3,85,32.8,84.1,38.2C83.9,39.1,83.7,39.9,83.4,40.8L83,42.4L81.6,41.4C78.3,39,74.7,37.2,70.8,36L69.8,35.7L69.9,34.7C70,33.3,69.6,31.8,68.8,30.6C67.2,28.3,64.4,27.3,61.7,28C61.1,28.2,60.5,28.4,60,28.7L32.6,46.2C31.2,47,30.3,48.4,30,50C29.7,51.6,30.1,53.3,31,54.6C32.6,56.9,35.4,57.9,38.1,57.2C38.7,57,39.3,56.8,39.8,56.5L50.3,49.8C52,48.7,53.9,47.9,55.9,47.3C64.8,45,74.1,48.5,79.3,56C82.5,60.4,83.7,65.9,82.8,71.3C81.9,76.5,78.7,81.2,74.2,84L46.8,101.5C45,102.6,43.1,103.5,41.1,104" transform="matrix(-0.596528 -0.38739 0.38739 -0.596528 76.824974 129.357693)" fill="rgb(255,255,255)" stroke="url(#eYFANSq8ots10-stroke)" stroke-width="5" stroke-miterlimit="1"/></g></g></svg>